# Created by FreeCAD <http://www.freecadweb.org>
v 145.000000 40.299999 8.500000
v 145.000000 42.299999 8.400000
v 145.000000 42.299999 8.500000
v 145.000000 40.299999 8.400000
v 145.000000 22.500000 8.500000
v 145.000000 22.500000 8.400000
v 145.000000 40.299999 37.000000
v 145.000000 42.299999 37.000000
v 145.000000 61.000000 8.400000
v 145.000000 61.000000 8.500000
v 145.000000 20.500000 8.400000
v 145.000000 2.500000 8.400000
v 143.600006 2.500000 7.000000
v 143.600006 61.000000 7.000000
v 145.000000 20.500000 8.500000
v 145.000000 22.500000 37.000000
v 142.000000 42.299999 37.000000
v 142.000000 40.299999 37.000000
v 145.000000 61.000000 37.000000
v 104.400002 61.000000 7.000000
v 103.000000 61.000000 8.400000
v 103.000000 61.000000 7.000000
v 101.000000 61.000000 7.000000
v 103.000000 61.000000 8.500000
v 101.000000 61.000000 38.000000
v 103.000000 61.000000 37.000000
v 106.000000 61.000000 37.000000
v 145.000000 61.000000 7.000000
v 147.000000 61.000000 7.000000
v 106.000000 61.000000 8.500000
v 142.000000 61.000000 37.000000
v 142.000000 61.000000 8.500000
v 147.000000 61.000000 38.000000
v 145.000000 2.000000 8.400000
v 143.600006 2.000000 7.000000
v 145.000000 2.500000 8.500000
v 145.000000 20.500000 37.000000
v 142.000000 22.500000 37.000000
v 106.000000 40.299999 37.000000
v 106.000000 42.299999 37.000000
v 103.000000 42.299999 8.500000
v 103.000000 42.299999 8.400000
v 103.000000 2.500000 8.400000
v 103.000000 20.500000 8.400000
v 104.400002 2.500000 7.000000
v 103.000000 22.500000 8.400000
v 103.000000 40.299999 8.400000
v 103.000000 42.299999 37.000000
v 106.000000 61.000000 7.000000
v 106.000000 2.500000 7.000000
v 103.000000 62.000000 7.000000
v 101.000000 64.000000 7.000000
v 106.000000 62.000000 7.000000
v 112.000000 64.000000 7.000000
v 112.000000 63.000000 7.000000
v 133.000000 64.000000 7.000000
v 142.000000 62.000000 7.000000
v 133.000000 63.000000 7.000000
v 145.000000 62.000000 7.000000
v 147.000000 64.000000 7.000000
v 106.000000 42.299999 8.500000
v 101.000000 64.000000 38.000000
v 142.000000 42.299999 8.500000
v 147.000000 64.000000 38.000000
v 145.000000 0.500000 8.400000
v 143.600006 0.500000 7.000000
v 142.000000 2.500000 7.000000
v 142.000000 2.000000 7.000000
v 145.000000 2.000000 8.500000
v 142.000000 61.000000 7.000000
v 145.000000 2.500000 37.000000
v 142.000000 20.500000 37.000000
v 142.000000 22.500000 8.500000
v 142.000000 40.299999 8.500000
v 106.000000 40.299999 8.500000
v 103.000000 40.299999 37.000000
v 103.000000 40.299999 8.500000
v 103.000000 2.000000 8.400000
v 104.400002 2.000000 7.000000
v 103.000000 2.500000 8.500000
v 103.000000 20.500000 8.500000
v 103.000000 22.500000 8.500000
v 106.000000 2.000000 7.000000
v 112.000000 64.000000 11.000000
v 133.000000 64.000000 11.000000
v 104.400002 0.500000 7.000000
v 103.000000 0.500000 37.000000
v 103.000000 0.500000 8.400000
v 145.000000 0.500000 37.000000
v 145.000000 2.000000 37.000000
v 142.000000 2.500000 37.000000
v 106.000000 20.500000 37.000000
v 106.000000 22.500000 37.000000
v 106.000000 22.500000 8.500000
v 103.000000 22.500000 37.000000
v 103.000000 2.000000 8.500000
v 103.000000 2.500000 37.000000
v 103.000000 20.500000 37.000000
v 112.000000 71.969872 7.000000
v 112.000000 71.104279 7.668224
v 112.000000 73.000000 7.000000
v 112.000000 73.000000 11.000000
v 112.000000 70.114120 8.132295
v 112.000000 69.046761 8.370016
v 112.000000 67.953239 8.370016
v 112.000000 65.030128 7.000000
v 112.000000 65.895721 7.668224
v 112.000000 66.885880 8.132295
v 133.000000 73.000000 11.000000
v 133.000000 71.104279 7.668224
v 133.000000 71.969872 7.000000
v 133.000000 73.000000 7.000000
v 133.000000 70.114120 8.132295
v 133.000000 69.046761 8.370016
v 133.000000 65.030128 7.000000
v 133.000000 65.895721 7.668224
v 133.000000 67.953239 8.370016
v 133.000000 66.885880 8.132295
v 103.000000 2.000000 37.000000
v 106.000000 2.000000 37.000000
v 142.000000 2.000000 37.000000
v 106.000000 2.500000 37.000000
v 142.000000 20.500000 8.500000
v 142.000000 2.500000 8.500000
v 106.000000 20.500000 8.500000
v 106.000000 2.500000 8.500000
vn 1.000000 -0.000000 0.000000
vn 1.000000 0.000000 0.000000
vn 1.000000 -0.000000 0.000000
vn 1.000000 0.000000 0.000000
vn 1.000000 -0.000000 0.000000
vn 1.000000 0.000000 0.000000
vn 1.000000 -0.000000 0.000000
vn 1.000000 0.000000 0.000000
vn 0.707108 0.000000 -0.707105
vn 0.707108 0.000000 -0.707105
vn 0.707108 0.000000 -0.707105
vn 0.707108 0.000000 -0.707105
vn 0.707108 0.000000 -0.707105
vn 0.707108 0.000000 -0.707105
vn 1.000000 -0.000000 0.000000
vn 1.000000 0.000000 0.000000
vn 1.000000 0.000000 0.000000
vn 1.000000 -0.000000 0.000000
vn 0.000000 0.000000 1.000000
vn 0.000000 0.000000 1.000000
vn 1.000000 -0.000000 0.000000
vn 1.000000 0.000000 0.000000
vn 0.000000 -1.000000 0.000000
vn 0.000000 -1.000000 0.000000
vn -0.000000 -1.000000 0.000000
vn -0.000000 -1.000000 0.000000
vn 0.000000 -1.000000 0.000000
vn 0.000000 -1.000000 0.000000
vn 0.000000 -1.000000 0.000000
vn 0.000000 -1.000000 0.000000
vn 0.000000 -1.000000 0.000000
vn 0.000000 -1.000000 0.000000
vn 0.000000 -1.000000 0.000000
vn 0.000000 -1.000000 0.000000
vn 0.000000 -1.000000 0.000000
vn 0.000000 -1.000000 0.000000
vn -0.000000 -1.000000 0.000000
vn 0.000000 -1.000000 0.000000
vn 0.707108 0.000000 -0.707105
vn 0.707108 0.000000 -0.707105
vn 1.000000 -0.000000 0.000000
vn 1.000000 0.000000 0.000000
vn 1.000000 -0.000000 0.000000
vn 1.000000 0.000000 0.000000
vn 0.000000 0.000000 1.000000
vn 0.000000 0.000000 1.000000
vn 0.000000 0.000000 1.000000
vn 0.000000 0.000000 1.000000
vn 0.000000 0.000000 1.000000
vn 0.000000 0.000000 1.000000
vn -1.000000 0.000000 0.000000
vn -1.000000 0.000000 0.000000
vn -0.707106 0.000000 -0.707107
vn -0.707106 0.000000 -0.707107
vn -0.707106 0.000000 -0.707107
vn -0.707106 -0.000000 -0.707107
vn -0.707106 0.000000 -0.707107
vn -0.707106 0.000000 -0.707107
vn -1.000000 0.000000 0.000000
vn -1.000000 0.000000 0.000000
vn 0.000000 0.000000 -1.000000
vn 0.000000 0.000000 -1.000000
vn 0.000000 0.000000 1.000000
vn 0.000000 0.000000 1.000000
vn 0.000000 0.000000 -1.000000
vn 0.000000 0.000000 -1.000000
vn 0.000000 0.000000 -1.000000
vn 0.000000 0.000000 -1.000000
vn 0.000000 0.000000 -1.000000
vn 0.000000 0.000000 -1.000000
vn 0.000000 0.000000 -1.000000
vn 0.000000 0.000000 -1.000000
vn 0.000000 0.000000 -1.000000
vn 0.000000 0.000000 -1.000000
vn 0.000000 0.000000 -1.000000
vn -0.000000 0.000000 -1.000000
vn 1.000000 -0.000000 0.000000
vn 1.000000 0.000000 0.000000
vn -1.000000 0.000000 0.000000
vn -1.000000 0.000000 0.000000
vn 0.000000 0.000000 1.000000
vn 0.000000 0.000000 1.000000
vn 0.000000 0.000000 1.000000
vn 0.000000 0.000000 1.000000
vn -1.000000 0.000000 0.000000
vn -1.000000 0.000000 0.000000
vn 1.000000 -0.000000 0.000000
vn 1.000000 0.000000 0.000000
vn 0.707108 0.000000 -0.707105
vn 0.707108 0.000000 -0.707105
vn 0.000000 0.000000 -1.000000
vn 0.000000 0.000000 -1.000000
vn 1.000000 0.000000 0.000000
vn 1.000000 -0.000000 0.000000
vn 0.000000 0.000000 -1.000000
vn 0.000000 0.000000 -1.000000
vn 0.000000 0.000000 -1.000000
vn 0.000000 0.000000 -1.000000
vn 1.000000 -0.000000 0.000000
vn 1.000000 0.000000 0.000000
vn 0.000000 0.000000 1.000000
vn 0.000000 0.000000 1.000000
vn -1.000000 0.000000 0.000000
vn -1.000000 0.000000 0.000000
vn 0.000000 1.000000 0.000000
vn 0.000000 1.000000 0.000000
vn 0.000000 -1.000000 0.000000
vn 0.000000 -1.000000 0.000000
vn 0.000000 0.000000 1.000000
vn 0.000000 0.000000 1.000000
vn -1.000000 0.000000 0.000000
vn -1.000000 0.000000 0.000000
vn -0.707106 0.000000 -0.707107
vn -0.707106 0.000000 -0.707107
vn -1.000000 0.000000 0.000000
vn -1.000000 0.000000 0.000000
vn -1.000000 0.000000 0.000000
vn -1.000000 0.000000 0.000000
vn -1.000000 0.000000 0.000000
vn -1.000000 0.000000 0.000000
vn -1.000000 0.000000 0.000000
vn -1.000000 0.000000 0.000000
vn 0.000000 0.000000 -1.000000
vn 0.000000 0.000000 -1.000000
vn 0.000000 0.000000 -1.000000
vn 0.000000 0.000000 -1.000000
vn 0.000000 1.000000 0.000000
vn 0.000000 1.000000 0.000000
vn 0.000000 1.000000 0.000000
vn 0.000000 1.000000 0.000000
vn 0.000000 1.000000 0.000000
vn 0.000000 1.000000 0.000000
vn 0.000000 0.000000 -1.000000
vn 0.000000 0.000000 -1.000000
vn 0.000000 0.000000 -1.000000
vn 0.000000 0.000000 -1.000000
vn 0.000000 -1.000000 0.000000
vn 0.000000 -1.000000 0.000000
vn -0.000000 -1.000000 0.000000
vn 0.000000 -1.000000 0.000000
vn 0.000000 0.000000 -1.000000
vn -0.000000 -0.000000 -1.000000
vn 0.000000 -0.000000 -1.000000
vn 0.000000 0.000000 -1.000000
vn 1.000000 0.000000 0.000000
vn 1.000000 -0.000000 0.000000
vn 1.000000 0.000000 0.000000
vn 0.000000 0.000000 -1.000000
vn 0.000000 0.000000 -1.000000
vn 1.000000 -0.000000 0.000000
vn 1.000000 0.000000 0.000000
vn 0.000000 0.000000 1.000000
vn 0.000000 0.000000 1.000000
vn 0.000000 0.000000 1.000000
vn 0.000000 0.000000 1.000000
vn 0.000000 1.000000 0.000000
vn 0.000000 1.000000 0.000000
vn 0.000000 0.000000 1.000000
vn 0.000000 0.000000 1.000000
vn 1.000000 0.000000 0.000000
vn 1.000000 -0.000000 0.000000
vn 0.000000 0.000000 1.000000
vn 0.000000 0.000000 1.000000
vn -0.707106 0.000000 -0.707107
vn -0.707106 0.000000 -0.707107
vn -1.000000 0.000000 0.000000
vn -1.000000 0.000000 0.000000
vn -1.000000 0.000000 0.000000
vn -1.000000 0.000000 0.000000
vn -1.000000 0.000000 0.000000
vn -1.000000 0.000000 0.000000
vn -1.000000 0.000000 0.000000
vn -1.000000 0.000000 0.000000
vn -1.000000 0.000000 0.000000
vn -1.000000 0.000000 0.000000
vn -1.000000 0.000000 0.000000
vn -1.000000 0.000000 0.000000
vn -1.000000 0.000000 0.000000
vn -1.000000 0.000000 0.000000
vn -1.000000 0.000000 0.000000
vn -1.000000 0.000000 0.000000
vn -1.000000 0.000000 0.000000
vn -1.000000 0.000000 0.000000
vn 0.000000 0.000000 1.000000
vn 0.000000 0.000000 1.000000
vn 1.000000 0.000000 0.000000
vn 1.000000 0.000000 0.000000
vn 1.000000 -0.000000 0.000000
vn 1.000000 -0.000000 0.000000
vn 1.000000 0.000000 0.000000
vn 1.000000 0.000000 0.000000
vn 1.000000 0.000000 0.000000
vn 1.000000 0.000000 0.000000
vn 1.000000 -0.000000 0.000000
vn 1.000000 0.000000 0.000000
vn 0.000000 0.000000 -1.000000
vn 0.000000 0.000000 -1.000000
vn -1.000000 0.000000 0.000000
vn -1.000000 0.000000 0.000000
vn -1.000000 0.000000 0.000000
vn 0.000000 0.000000 1.000000
vn 0.000000 0.000000 1.000000
vn 0.000000 0.000000 1.000000
vn 0.000000 0.000000 1.000000
vn 0.000000 0.000000 1.000000
vn 0.000000 0.000000 1.000000
vn 0.000000 0.000000 1.000000
vn 0.000000 0.000000 1.000000
vn -1.000000 0.000000 0.000000
vn -1.000000 0.000000 0.000000
vn 0.000000 -1.000000 0.000000
vn 0.000000 -1.000000 0.000000
vn 0.000000 0.000000 1.000000
vn 0.000000 0.000000 1.000000
vn -1.000000 0.000000 0.000000
vn -1.000000 0.000000 0.000000
vn 0.000000 0.000000 1.000000
vn 0.000000 0.000000 1.000000
vn 0.000000 1.000000 0.000000
vn 0.000000 1.000000 0.000000
vn 0.000000 0.000000 -1.000000
vn 0.000000 0.000000 -1.000000
vn 0.000000 -0.611079 -0.791569
vn 0.000000 -0.424384 -0.905482
vn 0.000000 -0.611079 -0.791569
vn 0.000000 -0.217393 -0.976084
vn 0.000000 -0.424384 -0.905482
vn 0.000000 0.000000 -1.000000
vn 0.000000 -0.217393 -0.976084
vn 0.000000 0.217393 -0.976084
vn 0.000000 -0.000000 -1.000000
vn 0.000000 0.424384 -0.905482
vn 0.000000 0.217393 -0.976084
vn 0.000000 0.424384 -0.905482
vn 0.000000 0.611079 -0.791569
vn 0.000000 0.611079 -0.791569
vn 0.000000 0.000000 1.000000
vn 0.000000 0.000000 1.000000
vn 0.000000 1.000000 0.000000
vn 0.000000 1.000000 0.000000
vn 0.000000 0.000000 1.000000
vn 0.000000 0.000000 1.000000
vn 1.000000 -0.000000 0.000000
vn 1.000000 0.000000 0.000000
f 1//1 2//1 3//1
f 1//2 4//2 2//2
f 5//3 4//3 1//3
f 5//4 6//4 4//4
f 7//5 3//5 8//5
f 7//6 1//6 3//6
f 3//7 9//7 10//7
f 3//8 2//8 9//8
f 11//9 12//9 13//9
f 6//10 11//10 13//10
f 4//11 6//11 13//11
f 14//12 2//12 4//12
f 14//13 4//13 13//13
f 9//14 2//14 14//14
f 15//15 6//15 5//15
f 15//16 11//16 6//16
f 7//17 5//17 1//17
f 16//18 5//18 7//18
f 8//19 17//19 18//19
f 8//20 18//20 7//20
f 8//21 10//21 19//21
f 8//22 3//22 10//22
f 20//23 21//23 22//23
f 22//24 21//24 23//24
f 21//25 24//25 23//25
f 24//26 25//26 23//26
f 24//27 26//27 25//27
f 26//28 27//28 25//28
f 28//29 9//29 14//29
f 9//30 29//30 10//30
f 28//31 29//31 9//31
f 30//32 31//32 27//32
f 32//33 31//33 30//33
f 19//34 33//34 31//34
f 10//35 33//35 19//35
f 29//36 33//36 10//36
f 33//37 25//37 31//37
f 31//38 25//38 27//38
f 12//39 34//39 35//39
f 12//40 35//40 13//40
f 36//41 11//41 15//41
f 36//42 12//42 11//42
f 37//43 5//43 16//43
f 37//44 15//44 5//44
f 7//45 18//45 38//45
f 7//46 38//46 16//46
f 17//47 39//47 18//47
f 17//48 40//48 39//48
f 19//49 31//49 17//49
f 19//50 17//50 8//50
f 21//51 41//51 24//51
f 42//52 41//52 21//52
f 43//53 44//53 45//53
f 44//54 46//54 45//54
f 46//55 47//55 45//55
f 42//56 20//56 47//56
f 47//57 20//57 45//57
f 42//58 21//58 20//58
f 24//59 48//59 26//59
f 41//60 48//60 24//60
f 45//61 49//61 50//61
f 20//62 49//62 45//62
f 27//63 26//63 48//63
f 27//64 48//64 40//64
f 23//65 51//65 22//65
f 23//66 52//66 51//66
f 52//67 53//67 51//67
f 52//68 54//68 53//68
f 53//69 54//69 55//69
f 56//70 57//70 58//70
f 59//71 29//71 28//71
f 57//72 60//72 59//72
f 59//73 60//73 29//73
f 56//74 60//74 57//74
f 57//75 53//75 58//75
f 58//76 53//76 55//76
f 40//77 30//77 27//77
f 40//78 61//78 30//78
f 52//79 25//79 62//79
f 23//80 25//80 52//80
f 63//81 30//81 61//81
f 32//82 30//82 63//82
f 64//83 62//83 25//83
f 64//84 25//84 33//84
f 32//85 17//85 31//85
f 63//86 17//86 32//86
f 33//87 60//87 64//87
f 33//88 29//88 60//88
f 65//89 66//89 35//89
f 34//90 65//90 35//90
f 67//91 13//91 68//91
f 68//92 13//92 35//92
f 69//93 34//93 12//93
f 69//94 12//94 36//94
f 49//95 70//95 50//95
f 50//96 70//96 67//96
f 57//97 59//97 70//97
f 70//98 59//98 28//98
f 71//99 15//99 37//99
f 71//100 36//100 15//100
f 16//101 38//101 72//101
f 16//102 72//102 37//102
f 73//103 18//103 74//103
f 73//104 38//104 18//104
f 17//105 61//105 40//105
f 17//106 63//106 61//106
f 75//107 18//107 39//107
f 74//108 18//108 75//108
f 40//109 48//109 76//109
f 40//110 76//110 39//110
f 42//111 77//111 41//111
f 47//112 77//112 42//112
f 78//113 43//113 79//113
f 79//114 43//114 45//114
f 44//115 80//115 81//115
f 43//116 80//116 44//116
f 46//117 81//117 82//117
f 44//118 81//118 46//118
f 47//119 82//119 77//119
f 46//120 82//120 47//120
f 41//121 76//121 48//121
f 77//122 76//122 41//122
f 45//123 50//123 79//123
f 79//124 50//124 83//124
f 51//125 53//125 22//125
f 22//126 53//126 49//126
f 84//127 54//127 52//127
f 62//128 84//128 52//128
f 85//129 84//129 62//129
f 60//130 56//130 85//130
f 64//131 85//131 62//131
f 64//132 60//132 85//132
f 55//133 56//133 58//133
f 54//134 56//134 55//134
f 53//135 57//135 49//135
f 49//136 57//136 70//136
f 86//137 87//137 88//137
f 66//138 89//138 86//138
f 65//139 89//139 66//139
f 86//140 89//140 87//140
f 79//141 83//141 86//141
f 68//142 66//142 83//142
f 83//143 66//143 86//143
f 68//144 35//144 66//144
f 65//145 34//145 69//145
f 89//146 69//146 90//146
f 89//147 65//147 69//147
f 50//148 67//148 83//148
f 83//149 67//149 68//149
f 90//150 36//150 71//150
f 90//151 69//151 36//151
f 37//152 72//152 91//152
f 37//153 91//153 71//153
f 38//154 92//154 72//154
f 38//155 93//155 92//155
f 38//156 94//156 93//156
f 38//157 73//157 94//157
f 74//158 75//158 94//158
f 74//159 94//159 73//159
f 39//160 94//160 75//160
f 93//161 94//161 39//161
f 39//162 76//162 95//162
f 39//163 95//163 93//163
f 88//164 78//164 86//164
f 86//165 78//165 79//165
f 78//166 96//166 43//166
f 43//167 96//167 80//167
f 81//168 97//168 98//168
f 80//169 97//169 81//169
f 82//170 98//170 95//170
f 81//171 98//171 82//171
f 82//172 76//172 77//172
f 82//173 95//173 76//173
f 99//174 100//174 101//174
f 100//175 102//175 101//175
f 100//176 103//176 102//176
f 103//177 104//177 102//177
f 104//178 105//178 102//178
f 106//179 54//179 107//179
f 108//180 84//180 105//180
f 107//181 84//181 108//181
f 105//182 84//182 102//182
f 54//183 84//183 107//183
f 109//184 102//184 84//184
f 109//185 84//185 85//185
f 110//186 111//186 112//186
f 109//187 110//187 112//187
f 113//188 110//188 109//188
f 114//189 113//189 109//189
f 56//190 115//190 116//190
f 85//191 117//191 114//191
f 85//192 118//192 117//192
f 85//193 116//193 118//193
f 85//194 114//194 109//194
f 85//195 56//195 116//195
f 106//196 115//196 54//196
f 54//197 115//197 56//197
f 78//198 88//198 96//198
f 96//199 87//199 119//199
f 88//200 87//200 96//200
f 120//201 119//201 87//201
f 121//202 120//202 87//202
f 91//203 122//203 120//203
f 91//204 120//204 121//204
f 89//205 121//205 87//205
f 90//206 121//206 89//206
f 71//207 91//207 121//207
f 71//208 121//208 90//208
f 123//209 91//209 72//209
f 124//210 91//210 123//210
f 125//211 72//211 92//211
f 123//212 72//212 125//212
f 93//213 95//213 98//213
f 93//214 98//214 92//214
f 80//215 119//215 97//215
f 96//216 119//216 80//216
f 92//217 98//217 97//217
f 92//218 97//218 122//218
f 112//219 101//219 102//219
f 109//220 112//220 102//220
f 101//221 111//221 99//221
f 101//222 112//222 111//222
f 99//223 111//223 100//223
f 100//224 110//224 103//224
f 111//225 110//225 100//225
f 103//226 113//226 104//226
f 110//227 113//227 103//227
f 104//228 114//228 105//228
f 113//229 114//229 104//229
f 105//230 117//230 108//230
f 114//231 117//231 105//231
f 108//232 118//232 107//232
f 117//233 118//233 108//233
f 118//234 116//234 107//234
f 107//235 115//235 106//235
f 116//236 115//236 107//236
f 122//237 97//237 119//237
f 122//238 119//238 120//238
f 91//239 124//239 126//239
f 91//240 126//240 122//240
f 123//241 125//241 126//241
f 123//242 126//242 124//242
f 122//243 125//243 92//243
f 122//244 126//244 125//244
