# Created by FreeCAD <http://www.freecadweb.org>
v 7.000000 2.000000 8.000000
v 7.000000 0.500000 8.000000
v 7.000000 2.000000 8.500000
v 7.000000 0.500000 37.000000
v 7.000000 2.000000 37.000000
v 7.000000 2.500000 8.000000
v 7.000000 2.500000 8.500000
v 7.025072 2.000000 7.777479
v 7.025072 0.500000 7.777479
v 7.099031 2.000000 7.566116
v 7.099031 0.500000 7.566116
v 7.218169 2.000000 7.376510
v 7.218169 0.500000 7.376510
v 7.376510 2.000000 7.218169
v 7.376510 0.500000 7.218169
v 7.566116 2.000000 7.099031
v 7.566116 0.500000 7.099031
v 7.777479 2.000000 7.025072
v 7.777479 0.500000 7.025072
v 8.000000 2.000000 7.000000
v 8.000000 0.500000 7.000000
v 7.000000 2.500000 37.000000
v 97.433884 0.500000 7.099031
v 97.900970 0.500000 7.566116
v 97.222519 0.500000 7.025072
v 97.623489 0.500000 7.218169
v 97.781830 0.500000 7.376510
v 97.974930 0.500000 7.777479
v 97.000000 0.500000 7.000000
v 98.000000 0.500000 8.000000
v 98.000000 0.500000 37.000000
v 10.000000 2.000000 37.000000
v 95.000000 2.500000 37.000000
v 10.000000 2.500000 37.000000
v 95.000000 2.000000 37.000000
v 98.000000 2.000000 37.000000
v 7.025072 2.500000 7.777479
v 7.099031 2.500000 7.566116
v 7.218169 2.500000 7.376510
v 7.376510 2.500000 7.218169
v 7.566116 2.500000 7.099031
v 7.777479 2.500000 7.025072
v 8.000000 2.500000 7.000000
v 7.000000 61.000000 8.000000
v 7.000000 61.000000 8.500000
v 10.000000 2.000000 7.000000
v 95.000000 2.000000 7.000000
v 97.000000 2.000000 7.000000
v 7.000000 61.000000 37.000000
v 97.222519 2.000000 7.025072
v 97.433884 2.000000 7.099031
v 97.623489 2.000000 7.218169
v 97.781830 2.000000 7.376510
v 97.900970 2.000000 7.566116
v 97.974930 2.000000 7.777479
v 98.000000 2.000000 8.000000
v 95.000000 2.500000 8.500000
v 10.000000 2.500000 8.500000
v 98.000000 2.500000 37.000000
v 10.000000 2.500000 7.000000
v 7.025072 61.000000 7.777479
v 7.099031 61.000000 7.566116
v 7.218169 61.000000 7.376510
v 7.376510 61.000000 7.218169
v 7.566116 61.000000 7.099031
v 7.777479 61.000000 7.025072
v 8.000000 61.000000 7.000000
v 7.000000 61.000000 7.000000
v 5.000000 61.000000 7.000000
v 5.000000 61.000000 38.000000
v 10.000000 61.000000 37.000000
v 97.000000 61.000000 7.000000
v 98.000000 61.000000 7.000000
v 97.222519 61.000000 7.025072
v 97.433884 61.000000 7.099031
v 97.623489 61.000000 7.218169
v 97.781830 61.000000 7.376510
v 97.900970 61.000000 7.566116
v 97.974930 61.000000 7.777479
v 101.000000 61.000000 7.000000
v 98.000000 61.000000 8.000000
v 10.000000 61.000000 8.500000
v 95.000000 61.000000 37.000000
v 95.000000 61.000000 8.500000
v 98.000000 61.000000 37.000000
v 101.000000 61.000000 38.000000
v 95.000000 2.500000 7.000000
v 97.000000 2.500000 7.000000
v 97.222519 2.500000 7.025072
v 97.433884 2.500000 7.099031
v 97.623489 2.500000 7.218169
v 97.781830 2.500000 7.376510
v 97.900970 2.500000 7.566116
v 97.974930 2.500000 7.777479
v 98.000000 2.500000 8.000000
v 10.000000 61.000000 7.000000
v 7.000000 62.000000 7.000000
v 5.000000 64.000000 7.000000
v 10.000000 62.000000 7.000000
v 32.000000 64.000000 7.000000
v 32.000000 63.000000 7.000000
v 72.000000 64.000000 7.000000
v 95.000000 62.000000 7.000000
v 72.000000 63.000000 7.000000
v 98.000000 62.000000 7.000000
v 101.000000 64.000000 7.000000
v 5.000000 64.000000 38.000000
v 101.000000 64.000000 38.000000
v 95.000000 61.000000 7.000000
v 32.000000 64.000000 11.000000
v 72.000000 64.000000 11.000000
v 32.000000 71.699997 7.000000
v 32.000000 71.062988 7.671007
v 32.000000 73.000000 7.000000
v 32.000000 70.288857 8.177709
v 32.000000 73.000000 11.000000
v 32.000000 69.419014 8.492996
v 32.000000 68.500000 8.600000
v 32.000000 65.300003 7.000000
v 32.000000 65.937012 7.671007
v 32.000000 67.580986 8.492996
v 32.000000 66.711143 8.177709
v 72.000000 73.000000 11.000000
v 72.000000 71.062988 7.671007
v 72.000000 71.699997 7.000000
v 72.000000 73.000000 7.000000
v 72.000000 70.288857 8.177709
v 72.000000 69.419014 8.492996
v 72.000000 68.500000 8.600000
v 72.000000 65.300003 7.000000
v 72.000000 65.937012 7.671007
v 72.000000 67.580986 8.492996
v 72.000000 66.711143 8.177709
vn -1.000000 0.000000 0.000000
vn -1.000000 0.000000 0.000000
vn -1.000000 0.000000 0.000000
vn -1.000000 0.000000 0.000000
vn -1.000000 0.000000 0.000000
vn -0.993712 0.000000 -0.111965
vn -0.993712 -0.000000 -0.111965
vn -0.943884 0.000000 -0.330278
vn -0.943884 -0.000000 -0.330278
vn -0.846724 0.000000 -0.532033
vn -0.846724 -0.000000 -0.532033
vn -0.707107 0.000000 -0.707107
vn -0.707107 -0.000000 -0.707107
vn -0.532033 0.000000 -0.846724
vn -0.532033 -0.000000 -0.846724
vn -0.330278 0.000000 -0.943884
vn -0.330278 -0.000000 -0.943884
vn -0.111965 0.000000 -0.993712
vn -0.111965 -0.000000 -0.993712
vn -1.000000 0.000000 0.000000
vn -1.000000 0.000000 0.000000
vn 0.000000 -1.000000 0.000000
vn 0.000000 -1.000000 0.000000
vn 0.000000 -1.000000 0.000000
vn 0.000000 -1.000000 0.000000
vn 0.000000 -1.000000 0.000000
vn 0.000000 -1.000000 0.000000
vn 0.000000 -1.000000 0.000000
vn -0.000000 -1.000000 0.000000
vn -0.000000 -1.000000 0.000000
vn -0.000000 -1.000000 0.000000
vn -0.000000 -1.000000 0.000000
vn -0.000000 -1.000000 0.000000
vn -0.000000 -1.000000 0.000000
vn 0.000000 -1.000000 0.000000
vn 0.000000 -1.000000 0.000000
vn -0.000000 -1.000000 0.000000
vn 0.000000 0.000000 1.000000
vn 0.000000 0.000000 1.000000
vn 0.000000 0.000000 1.000000
vn 0.000000 0.000000 1.000000
vn 0.000000 0.000000 1.000000
vn 0.000000 0.000000 1.000000
vn -0.993712 0.000000 -0.111965
vn -0.993712 -0.000000 -0.111965
vn -0.943884 0.000000 -0.330278
vn -0.943884 -0.000000 -0.330278
vn -0.846724 0.000000 -0.532033
vn -0.846724 -0.000000 -0.532033
vn -0.707107 0.000000 -0.707107
vn -0.707107 -0.000000 -0.707107
vn -0.532033 0.000000 -0.846724
vn -0.532033 -0.000000 -0.846724
vn -0.330278 0.000000 -0.943884
vn -0.330278 -0.000000 -0.943884
vn -0.111965 0.000000 -0.993712
vn -0.111965 -0.000000 -0.993712
vn -1.000000 0.000000 0.000000
vn -1.000000 0.000000 0.000000
vn 0.000000 0.000000 -1.000000
vn 0.000000 -0.000000 -1.000000
vn 0.000000 -0.000000 -1.000000
vn 0.000000 0.000000 -1.000000
vn 0.000000 0.000000 1.000000
vn 0.000000 0.000000 1.000000
vn -1.000000 0.000000 0.000000
vn -1.000000 0.000000 0.000000
vn 0.111966 0.000000 -0.993712
vn 0.111966 0.000000 -0.993712
vn 0.330276 0.000000 -0.943884
vn 0.330276 0.000000 -0.943884
vn 0.532034 0.000000 -0.846723
vn 0.532034 0.000000 -0.846723
vn 0.707109 0.000000 -0.707105
vn 0.707109 0.000000 -0.707105
vn 0.846718 0.000000 -0.532042
vn 0.846718 0.000000 -0.532042
vn 0.943883 0.000000 -0.330280
vn 0.943883 0.000000 -0.330280
vn 0.993713 0.000000 -0.111956
vn 0.993713 0.000000 -0.111956
vn 1.000000 -0.000000 0.000000
vn 1.000000 0.000000 0.000000
vn 0.000000 1.000000 0.000000
vn 0.000000 1.000000 0.000000
vn 0.000000 0.000000 1.000000
vn 0.000000 0.000000 1.000000
vn 0.000000 0.000000 -1.000000
vn 0.000000 0.000000 -1.000000
vn -0.993712 0.000000 -0.111965
vn -0.993712 -0.000000 -0.111965
vn -0.943884 0.000000 -0.330278
vn -0.943884 -0.000000 -0.330278
vn -0.846724 0.000000 -0.532033
vn -0.846724 -0.000000 -0.532033
vn -0.707107 0.000000 -0.707107
vn -0.707107 -0.000000 -0.707107
vn -0.532033 0.000000 -0.846724
vn -0.330278 0.000000 -0.943884
vn -0.532033 -0.000000 -0.846724
vn -0.330278 0.000000 -0.943884
vn -0.111965 0.000000 -0.993712
vn -0.111965 -0.000000 -0.993712
vn 0.000000 -1.000000 0.000000
vn 0.000000 -1.000000 0.000000
vn -0.000000 -1.000000 0.000000
vn 0.000000 -1.000000 0.000000
vn 0.000000 -1.000000 0.000000
vn -0.000000 -1.000000 0.000000
vn 0.000000 -1.000000 0.000000
vn -0.000000 -1.000000 0.000000
vn -0.000000 -1.000000 0.000000
vn -0.000000 -1.000000 0.000000
vn 0.000000 -1.000000 0.000000
vn 0.000000 -1.000000 0.000000
vn 0.000000 -1.000000 0.000000
vn 0.000000 -1.000000 0.000000
vn 0.000000 -1.000000 0.000000
vn 0.000000 -1.000000 0.000000
vn 0.000000 -1.000000 0.000000
vn 0.000000 -1.000000 0.000000
vn 0.000000 -1.000000 0.000000
vn 0.000000 -1.000000 0.000000
vn 0.000000 -1.000000 0.000000
vn 0.000000 -1.000000 0.000000
vn 0.000000 -1.000000 0.000000
vn 0.000000 -1.000000 0.000000
vn 0.000000 -1.000000 0.000000
vn -0.000000 -1.000000 0.000000
vn 0.000000 -1.000000 0.000000
vn 0.000000 0.000000 -1.000000
vn 0.000000 0.000000 -1.000000
vn 0.000000 0.000000 -1.000000
vn 0.000000 0.000000 -1.000000
vn 0.000000 0.000000 1.000000
vn 0.000000 0.000000 1.000000
vn 0.111966 0.000000 -0.993712
vn 0.111966 0.000000 -0.993712
vn 0.330276 0.000000 -0.943884
vn 0.330276 0.000000 -0.943884
vn 0.532034 0.000000 -0.846723
vn 0.532034 0.000000 -0.846723
vn 0.707109 0.000000 -0.707105
vn 0.707109 0.000000 -0.707105
vn 0.846718 0.000000 -0.532042
vn 0.846718 0.000000 -0.532042
vn 0.943883 0.000000 -0.330280
vn 0.943883 0.000000 -0.330280
vn 0.993713 0.000000 -0.111956
vn 0.993713 0.000000 -0.111956
vn 1.000000 -0.000000 0.000000
vn 1.000000 0.000000 0.000000
vn 0.000000 0.000000 1.000000
vn 0.000000 0.000000 1.000000
vn -1.000000 0.000000 0.000000
vn -1.000000 0.000000 0.000000
vn 1.000000 -0.000000 0.000000
vn 1.000000 0.000000 0.000000
vn 0.000000 0.000000 1.000000
vn 0.000000 0.000000 1.000000
vn 0.000000 0.000000 -1.000000
vn 0.000000 0.000000 -1.000000
vn 0.000000 0.000000 -1.000000
vn 0.000000 0.000000 -1.000000
vn 0.000000 0.000000 -1.000000
vn 0.000000 0.000000 -1.000000
vn 0.000000 0.000000 -1.000000
vn 0.000000 0.000000 -1.000000
vn 0.000000 0.000000 -1.000000
vn 0.000000 0.000000 -1.000000
vn 0.000000 0.000000 -1.000000
vn 0.000000 0.000000 -1.000000
vn 0.000000 0.000000 -1.000000
vn -0.000000 0.000000 -1.000000
vn -1.000000 0.000000 0.000000
vn -1.000000 0.000000 0.000000
vn 0.000000 0.000000 1.000000
vn 0.000000 0.000000 1.000000
vn 1.000000 -0.000000 0.000000
vn 1.000000 0.000000 0.000000
vn 1.000000 0.000000 0.000000
vn 1.000000 -0.000000 0.000000
vn 0.111966 0.000000 -0.993712
vn 0.111966 0.000000 -0.993712
vn 0.330276 0.000000 -0.943884
vn 0.330276 0.000000 -0.943884
vn 0.532034 0.000000 -0.846723
vn 0.532034 0.000000 -0.846723
vn 0.707109 0.000000 -0.707105
vn 0.707109 0.000000 -0.707105
vn 0.846718 0.000000 -0.532042
vn 0.943883 0.000000 -0.330280
vn 0.846718 0.000000 -0.532042
vn 0.943883 0.000000 -0.330280
vn 0.993713 0.000000 -0.111956
vn 0.993713 0.000000 -0.111956
vn 0.000000 0.000000 -1.000000
vn 0.000000 0.000000 -1.000000
vn 0.000000 0.000000 -1.000000
vn 0.000000 0.000000 -1.000000
vn 0.000000 1.000000 0.000000
vn 0.000000 1.000000 0.000000
vn 0.000000 1.000000 0.000000
vn 0.000000 1.000000 0.000000
vn 0.000000 1.000000 0.000000
vn 0.000000 1.000000 0.000000
vn 0.000000 0.000000 -1.000000
vn 0.000000 0.000000 -1.000000
vn 0.000000 0.000000 -1.000000
vn 0.000000 0.000000 -1.000000
vn 0.000000 0.000000 -1.000000
vn 0.000000 0.000000 -1.000000
vn -1.000000 0.000000 0.000000
vn -1.000000 0.000000 0.000000
vn -1.000000 0.000000 0.000000
vn -1.000000 0.000000 0.000000
vn -1.000000 0.000000 0.000000
vn -1.000000 0.000000 0.000000
vn -1.000000 0.000000 0.000000
vn -1.000000 0.000000 0.000000
vn -1.000000 0.000000 0.000000
vn -1.000000 0.000000 0.000000
vn -1.000000 0.000000 0.000000
vn 0.000000 0.000000 1.000000
vn 0.000000 0.000000 1.000000
vn 1.000000 0.000000 0.000000
vn 1.000000 0.000000 0.000000
vn 1.000000 0.000000 0.000000
vn 1.000000 -0.000000 0.000000
vn 1.000000 -0.000000 0.000000
vn 1.000000 0.000000 0.000000
vn 1.000000 0.000000 0.000000
vn 1.000000 0.000000 0.000000
vn 1.000000 0.000000 0.000000
vn 1.000000 0.000000 0.000000
vn 1.000000 -0.000000 0.000000
vn 0.000000 0.000000 -1.000000
vn 0.000000 0.000000 -1.000000
vn 0.000000 1.000000 0.000000
vn 0.000000 1.000000 0.000000
vn 0.000000 0.000000 -1.000000
vn 0.000000 0.000000 -1.000000
vn 0.000000 -0.725241 -0.688495
vn 0.000000 -0.547657 -0.836703
vn 0.000000 -0.725241 -0.688495
vn 0.000000 -0.340770 -0.940147
vn 0.000000 -0.547657 -0.836703
vn 0.000000 -0.115652 -0.993290
vn 0.000000 -0.340770 -0.940147
vn 0.000000 -0.115652 -0.993290
vn 0.000000 0.115652 -0.993290
vn 0.000000 0.115652 -0.993290
vn 0.000000 0.340770 -0.940147
vn 0.000000 0.340770 -0.940147
vn 0.000000 0.547657 -0.836703
vn 0.000000 0.547657 -0.836703
vn 0.000000 0.725241 -0.688495
vn 0.000000 0.725241 -0.688495
f 1//1 2//1 3//1
f 3//2 4//2 5//2
f 2//3 4//3 3//3
f 1//4 3//4 6//4
f 6//5 3//5 7//5
f 2//6 8//6 9//6
f 1//7 8//7 2//7
f 9//8 10//8 11//8
f 8//9 10//9 9//9
f 11//10 12//10 13//10
f 10//11 12//11 11//11
f 13//12 14//12 15//12
f 12//13 14//13 13//13
f 15//14 16//14 17//14
f 14//15 16//15 15//15
f 17//16 18//16 19//16
f 16//17 18//17 17//17
f 19//18 20//18 21//18
f 18//19 20//19 19//19
f 7//20 5//20 22//20
f 3//21 5//21 7//21
f 17//22 21//22 15//22
f 19//23 21//23 17//23
f 11//24 2//24 9//24
f 13//25 2//25 11//25
f 15//26 2//26 13//26
f 21//27 2//27 15//27
f 21//28 4//28 2//28
f 23//29 24//29 25//29
f 26//30 24//30 23//30
f 27//31 24//31 26//31
f 25//32 28//32 29//32
f 24//33 28//33 25//33
f 28//34 30//34 29//34
f 29//35 31//35 21//35
f 21//36 31//36 4//36
f 30//37 31//37 29//37
f 32//38 5//38 4//38
f 33//39 34//39 32//39
f 33//40 32//40 35//40
f 31//41 32//41 4//41
f 31//42 35//42 32//42
f 36//43 35//43 31//43
f 1//44 37//44 8//44
f 6//45 37//45 1//45
f 8//46 38//46 10//46
f 37//47 38//47 8//47
f 10//48 39//48 12//48
f 38//49 39//49 10//49
f 12//50 40//50 14//50
f 39//51 40//51 12//51
f 14//52 41//52 16//52
f 40//53 41//53 14//53
f 16//54 42//54 18//54
f 41//55 42//55 16//55
f 18//56 43//56 20//56
f 42//57 43//57 18//57
f 44//58 6//58 45//58
f 6//59 7//59 45//59
f 20//60 46//60 21//60
f 46//61 47//61 21//61
f 47//62 29//62 21//62
f 47//63 48//63 29//63
f 34//64 22//64 5//64
f 34//65 5//65 32//65
f 45//66 22//66 49//66
f 7//67 22//67 45//67
f 29//68 50//68 25//68
f 48//69 50//69 29//69
f 25//70 51//70 23//70
f 50//71 51//71 25//71
f 23//72 52//72 26//72
f 51//73 52//73 23//73
f 26//74 53//74 27//74
f 52//75 53//75 26//75
f 27//76 54//76 24//76
f 53//77 54//77 27//77
f 24//78 55//78 28//78
f 54//79 55//79 24//79
f 28//80 56//80 30//80
f 55//81 56//81 28//81
f 31//82 56//82 36//82
f 31//83 30//83 56//83
f 33//84 57//84 58//84
f 33//85 58//85 34//85
f 59//86 35//86 36//86
f 59//87 33//87 35//87
f 43//88 60//88 20//88
f 20//89 60//89 46//89
f 6//90 61//90 37//90
f 44//91 61//91 6//91
f 37//92 62//92 38//92
f 61//93 62//93 37//93
f 38//94 63//94 39//94
f 62//95 63//95 38//95
f 39//96 64//96 40//96
f 63//97 64//97 39//97
f 40//98 65//98 41//98
f 41//99 65//99 42//99
f 64//100 65//100 40//100
f 65//101 66//101 42//101
f 42//102 67//102 43//102
f 66//103 67//103 42//103
f 68//104 64//104 63//104
f 68//105 65//105 64//105
f 63//106 62//106 68//106
f 68//107 66//107 65//107
f 68//108 61//108 69//108
f 62//109 61//109 68//109
f 68//110 67//110 66//110
f 61//111 44//111 69//111
f 44//112 45//112 69//112
f 45//113 70//113 69//113
f 45//114 49//114 70//114
f 49//115 71//115 70//115
f 72//116 73//116 74//116
f 74//117 73//117 75//117
f 75//118 73//118 76//118
f 73//119 77//119 76//119
f 73//120 78//120 77//120
f 73//121 79//121 78//121
f 79//122 80//122 81//122
f 73//123 80//123 79//123
f 82//124 83//124 71//124
f 84//125 83//125 82//125
f 85//126 86//126 83//126
f 81//127 86//127 85//127
f 80//128 86//128 81//128
f 86//129 70//129 83//129
f 83//130 70//130 71//130
f 60//131 87//131 46//131
f 46//132 87//132 47//132
f 47//133 88//133 48//133
f 87//134 88//134 47//134
f 71//135 49//135 22//135
f 71//136 22//136 34//136
f 48//137 89//137 50//137
f 88//138 89//138 48//138
f 50//139 90//139 51//139
f 89//140 90//140 50//140
f 51//141 91//141 52//141
f 90//142 91//142 51//142
f 52//143 92//143 53//143
f 91//144 92//144 52//144
f 53//145 93//145 54//145
f 92//146 93//146 53//146
f 54//147 94//147 55//147
f 93//148 94//148 54//148
f 55//149 95//149 56//149
f 94//150 95//150 55//150
f 36//151 95//151 59//151
f 36//152 56//152 95//152
f 84//153 82//153 58//153
f 84//154 58//154 57//154
f 84//155 33//155 83//155
f 57//156 33//156 84//156
f 34//157 82//157 71//157
f 34//158 58//158 82//158
f 85//159 83//159 33//159
f 85//160 33//160 59//160
f 43//161 96//161 60//161
f 67//162 96//162 43//162
f 69//163 97//163 68//163
f 69//164 98//164 97//164
f 98//165 99//165 97//165
f 98//166 100//166 99//166
f 99//167 100//167 101//167
f 102//168 103//168 104//168
f 105//169 80//169 73//169
f 103//170 106//170 105//170
f 105//171 106//171 80//171
f 102//172 106//172 103//172
f 103//173 99//173 104//173
f 104//174 99//174 101//174
f 98//175 70//175 107//175
f 69//176 70//176 98//176
f 108//177 107//177 70//177
f 108//178 70//178 86//178
f 86//179 106//179 108//179
f 86//180 80//180 106//180
f 95//181 81//181 85//181
f 59//182 95//182 85//182
f 88//183 74//183 89//183
f 72//184 74//184 88//184
f 89//185 75//185 90//185
f 74//186 75//186 89//186
f 90//187 76//187 91//187
f 75//188 76//188 90//188
f 91//189 77//189 92//189
f 76//190 77//190 91//190
f 92//191 78//191 93//191
f 93//192 78//192 94//192
f 77//193 78//193 92//193
f 78//194 79//194 94//194
f 94//195 81//195 95//195
f 79//196 81//196 94//196
f 96//197 109//197 60//197
f 60//198 109//198 87//198
f 97//199 99//199 68//199
f 68//200 99//200 96//200
f 110//201 100//201 98//201
f 107//202 110//202 98//202
f 111//203 110//203 107//203
f 106//204 102//204 111//204
f 108//205 106//205 111//205
f 108//206 111//206 107//206
f 100//207 104//207 101//207
f 100//208 102//208 104//208
f 103//209 105//209 109//209
f 109//210 105//210 73//210
f 99//211 103//211 96//211
f 96//212 103//212 109//212
f 112//213 113//213 114//213
f 115//214 116//214 113//214
f 113//215 116//215 114//215
f 115//216 117//216 116//216
f 117//217 118//217 116//217
f 119//218 100//218 120//218
f 121//219 110//219 118//219
f 122//220 110//220 121//220
f 120//221 110//221 122//221
f 100//222 110//222 120//222
f 118//223 110//223 116//223
f 123//224 116//224 110//224
f 123//225 110//225 111//225
f 124//226 125//226 126//226
f 123//227 127//227 124//227
f 123//228 124//228 126//228
f 128//229 127//229 123//229
f 129//230 128//230 123//230
f 102//231 130//231 131//231
f 111//232 132//232 129//232
f 111//233 133//233 132//233
f 111//234 131//234 133//234
f 111//235 102//235 131//235
f 111//236 129//236 123//236
f 119//237 130//237 100//237
f 100//238 130//238 102//238
f 123//239 126//239 114//239
f 123//240 114//240 116//240
f 114//241 126//241 112//241
f 112//242 126//242 125//242
f 112//243 125//243 113//243
f 113//244 124//244 115//244
f 125//245 124//245 113//245
f 115//246 127//246 117//246
f 124//247 127//247 115//247
f 117//248 128//248 118//248
f 127//249 128//249 117//249
f 128//250 129//250 118//250
f 118//251 132//251 121//251
f 129//252 132//252 118//252
f 121//253 133//253 122//253
f 132//254 133//254 121//254
f 122//255 131//255 120//255
f 133//256 131//256 122//256
f 120//257 130//257 119//257
f 131//258 130//258 120//258
